<svg width="51" height="51" viewBox="0 0 51 51" fill="none" xmlns="http://www.w3.org/2000/svg">
<path d="M25.5 0C20.4566 0 15.5264 1.49555 11.333 4.29752C7.13952 7.0995 3.87112 11.0821 1.94108 15.7416C0.0110487 20.4011 -0.493936 25.5283 0.489987 30.4748C1.47391 35.4213 3.90255 39.965 7.46879 43.5312C11.035 47.0975 15.5787 49.5261 20.5252 50.51C25.4717 51.4939 30.5989 50.989 35.2584 49.0589C39.9179 47.1289 43.9005 43.8605 46.7025 39.667C49.5045 35.4736 51 30.5434 51 25.5C50.9934 18.739 48.3047 12.2568 43.5239 7.47605C38.7432 2.6953 32.261 0.00658646 25.5 0ZM25.2263 41.7951C24.5665 41.7951 23.9338 41.533 23.4672 41.0665C23.0007 40.5999 22.7385 39.9671 22.7385 39.3073C22.7385 38.6475 23.0007 38.0147 23.4672 37.5482C23.9338 37.0816 24.5665 36.8195 25.2263 36.8195C25.8862 36.8195 26.5189 37.0816 26.9855 37.5482C27.452 38.0147 27.7142 38.6475 27.7142 39.3073C27.7142 39.9671 27.452 40.5999 26.9855 41.0665C26.5189 41.533 25.8862 41.7951 25.2263 41.7951ZM34.7298 23.5844C34.2186 24.7702 33.4656 25.8363 32.5189 26.7145C31.5722 27.5927 30.4526 28.2636 29.2317 28.6844C28.8245 28.8621 28.4723 29.1455 28.2117 29.5054C27.921 29.8929 27.7639 30.3643 27.7639 30.8488V32.6151C27.7639 33.2749 27.5018 33.9077 27.0352 34.3743C26.5687 34.8408 25.9359 35.1029 25.2761 35.1029C24.6163 35.1029 23.9835 34.8408 23.517 34.3743C23.0504 33.9077 22.7883 33.2749 22.7883 32.6151V30.7741C22.8002 29.2805 23.2786 27.8279 24.1566 26.6195C25.0215 25.4713 26.2077 24.6055 27.5649 24.1317C28.154 23.9434 28.6909 23.6197 29.1322 23.1863C29.5703 22.7927 29.9175 22.3084 30.1495 21.7671C30.3815 21.2258 30.4928 20.6404 30.4756 20.0517C30.468 19.4575 30.3322 18.872 30.0776 18.3351C29.7051 17.6499 29.1767 17.0619 28.5351 16.6185C27.8807 16.1447 27.1208 15.8373 26.321 15.7229C25.1046 15.4916 23.8459 15.6664 22.7385 16.2205C21.6581 16.7534 20.7836 17.6278 20.2507 18.7083C19.9769 19.3087 19.4758 19.7758 18.8576 20.0067C18.2394 20.2377 17.5548 20.2136 16.9544 19.9398C16.354 19.6659 15.8869 19.1648 15.656 18.5466C15.425 17.9284 15.4491 17.2438 15.7229 16.6434C16.6838 14.5349 18.3229 12.8087 20.3789 11.7401C22.4349 10.6715 24.7895 10.322 27.0673 10.7473C28.6105 10.9841 30.0764 11.5807 31.3463 12.4888C32.6471 13.4149 33.7123 14.6334 34.4561 16.0463C35.0268 17.2242 35.3398 18.5103 35.3741 19.8188C35.4085 21.1272 35.1633 22.4279 34.6551 23.6341L34.7298 23.5844Z" fill="#FFFDFA"/>
</svg>
