<svg width="53" height="53" viewBox="0 0 53 53" fill="none" xmlns="http://www.w3.org/2000/svg">
<path d="M0 9.56944C0 7.03147 1.00821 4.59744 2.80282 2.80282C4.59744 1.00821 7.03147 0 9.56944 0H43.4306C45.9685 0 48.4026 1.00821 50.1972 2.80282C51.9918 4.59744 53 7.03147 53 9.56944V43.4306C53 45.9685 51.9918 48.4026 50.1972 50.1972C48.4026 51.9918 45.9685 53 43.4306 53H9.56944C7.03147 53 4.59744 51.9918 2.80282 50.1972C1.00821 48.4026 0 45.9685 0 43.4306V9.56944ZM12.5139 32.3889C11.9282 32.3889 11.3665 32.6216 10.9524 33.0357C10.5382 33.4498 10.3056 34.0115 10.3056 34.5972C10.3056 35.1829 10.5382 35.7446 10.9524 36.1587C11.3665 36.5729 11.9282 36.8056 12.5139 36.8056H22.8194C23.4051 36.8056 23.9668 36.5729 24.381 36.1587C24.7951 35.7446 25.0278 35.1829 25.0278 34.5972C25.0278 34.0115 24.7951 33.4498 24.381 33.0357C23.9668 32.6216 23.4051 32.3889 22.8194 32.3889H12.5139ZM10.3056 18.4028C10.3056 19.6218 11.2949 20.6111 12.5139 20.6111H22.8194C23.4051 20.6111 23.9668 20.3784 24.381 19.9643C24.7951 19.5502 25.0278 18.9885 25.0278 18.4028C25.0278 17.8171 24.7951 17.2554 24.381 16.8413C23.9668 16.4271 23.4051 16.1944 22.8194 16.1944H12.5139C11.9282 16.1944 11.3665 16.4271 10.9524 16.8413C10.5382 17.2554 10.3056 17.8171 10.3056 18.4028ZM43.5189 17.0189C43.909 16.6003 44.1213 16.0466 44.1112 15.4745C44.1011 14.9024 43.8694 14.3565 43.4648 13.9519C43.0602 13.5473 42.5143 13.3155 41.9422 13.3054C41.3701 13.2953 40.8164 13.5077 40.3978 13.8978L36.0694 18.2261L34.6856 16.8422C34.4834 16.6253 34.2396 16.4512 33.9687 16.3305C33.6978 16.2098 33.4054 16.1449 33.1089 16.1397C32.8124 16.1345 32.5178 16.189 32.2429 16.3001C31.9679 16.4111 31.7181 16.5765 31.5084 16.7862C31.2987 16.9959 31.1334 17.2457 31.0223 17.5206C30.9112 17.7956 30.8567 18.0901 30.8619 18.3866C30.8672 18.6832 30.9321 18.9756 31.0528 19.2465C31.1735 19.5174 31.3475 19.7612 31.5644 19.9633L34.5089 22.9078C34.923 23.3213 35.4842 23.5536 36.0694 23.5536C36.6547 23.5536 37.2159 23.3213 37.63 22.9078L43.5189 17.0189ZM43.5189 30.0922C43.1048 29.6787 42.5435 29.4464 41.9583 29.4464C41.3731 29.4464 40.8118 29.6787 40.3978 30.0922L36.0694 34.4206L34.6856 33.0367C34.4834 32.8197 34.2396 32.6457 33.9687 32.525C33.6978 32.4043 33.4054 32.3394 33.1089 32.3341C32.8124 32.3289 32.5178 32.3835 32.2429 32.4945C31.9679 32.6056 31.7181 32.7709 31.5084 32.9806C31.2987 33.1903 31.1334 33.4401 31.0223 33.7151C30.9112 33.99 30.8567 34.2846 30.8619 34.5811C30.8672 34.8776 30.9321 35.17 31.0528 35.4409C31.1735 35.7118 31.3475 35.9556 31.5644 36.1578L34.5089 39.1022C34.923 39.5158 35.4842 39.7481 36.0694 39.7481C36.6547 39.7481 37.2159 39.5158 37.63 39.1022L43.5189 33.2133C43.9324 32.7993 44.1647 32.238 44.1647 31.6528C44.1647 31.0676 43.9324 30.5063 43.5189 30.0922Z" fill="#FFFDFA"/>
</svg>
