<svg width="55" height="51" viewBox="0 0 55 51" fill="none" xmlns="http://www.w3.org/2000/svg">
<path d="M55 4.25V38.25C55 39.3772 54.5543 40.4582 53.7608 41.2552C52.9674 42.0522 51.8913 42.5 50.7692 42.5H15.4688L6.98612 49.9667C6.97591 49.9778 6.96436 49.9877 6.95175 49.9959C6.19206 50.6443 5.22766 51.0001 4.23084 51C3.61017 50.9989 2.99729 50.8611 2.43541 50.5962C1.70455 50.2579 1.0862 49.7152 0.654315 49.0331C0.222427 48.351 -0.0047096 47.5584 7.40309e-05 46.75V4.25C7.40309e-05 3.12283 0.445814 2.04183 1.23924 1.2448C2.03266 0.447766 3.10877 0 4.23084 0H50.7692C51.8913 0 52.9674 0.447766 53.7608 1.2448C54.5543 2.04183 55 3.12283 55 4.25Z" fill="#FFFDFA"/>
</svg>
