<svg width="58" height="55" viewBox="0 0 58 55" fill="none" xmlns="http://www.w3.org/2000/svg">
<path d="M56.7996 27.0494L30.4471 0.602331C30.2574 0.411394 30.032 0.259912 29.7839 0.156556C29.5358 0.0532004 29.2698 0 29.0012 0C28.7326 0 28.4666 0.0532004 28.2185 0.156556C27.9704 0.259912 27.745 0.411394 27.5553 0.602331L1.20279 27.0494C0.43505 27.8204 0 28.8678 0 29.9601C0 32.2283 1.83617 34.0724 4.09459 34.0724H6.87123V52.9439C6.87123 54.0812 7.78612 55 8.91853 55H24.9066V40.607H32.0721V55H49.0839C50.2163 55 51.1312 54.0812 51.1312 52.9439V34.0724H53.9078C54.9954 34.0724 56.0383 33.6419 56.806 32.8644C58.3991 31.258 58.3991 28.6557 56.7996 27.0494Z" fill="#FFFDFA"/>
</svg>
