<svg width="177" height="177" viewBox="0 0 177 177" fill="none" xmlns="http://www.w3.org/2000/svg">
<path d="M174.89 88.44C174.89 136.18 136.19 174.89 88.45 174.89C40.71 174.89 2 136.18 2 88.44C2 40.7 40.7 2 88.45 2C136.2 2 174.89 40.7 174.89 88.44Z" stroke="#FFFDFA" stroke-width="2.89" stroke-linecap="round" stroke-linejoin="round"/>
<path d="M157.63 104.76C146.96 117.44 134.09 123.65 118.68 121.28L72.1601 147.77C71.4001 148.66 70.0201 147.71 70.5601 146.69L110.21 113.3C117.88 104.92 122.23 92.14 114.88 81.58C110.14 74.77 100.72 67.5 90.9501 65.92C81.2001 63.18 56.8401 65.65 46.7301 90.88C35.9301 123.28 63.4001 171.28 91.6301 173.88C62.2201 176.75 24.4501 155.61 12.6601 129.54C-7.13987 85.76 4.72013 50.18 30.9401 24.29C86.6401 -12.98 131.39 22.01 143.83 37.82C156.28 54.98 169.73 83.91 157.62 104.76H157.63Z" fill="#FFFDFA" stroke="#FFFDFA" stroke-width="0.72" stroke-linecap="round" stroke-linejoin="round"/>
</svg>
