<svg width="51" height="51" viewBox="0 0 51 51" fill="none" xmlns="http://www.w3.org/2000/svg">
<path d="M50.8989 32.5371C49.2834 37.8121 46.0456 42.4431 41.6464 45.7711C37.784 48.6787 33.1879 50.452 28.3739 50.8921C23.5599 51.3321 18.7185 50.4213 14.3932 48.2621C10.0679 46.1029 6.42993 42.7806 3.88753 38.6682C1.34512 34.5558 -0.00104832 29.816 0.000122387 24.9809C-0.0172582 19.3372 1.81701 13.8437 5.22154 9.34317C8.54878 4.94298 13.1788 1.70451 18.4526 0.0886059C18.8002 -0.0184461 19.1704 -0.0286971 19.5234 0.0589554C19.8764 0.146608 20.1988 0.328848 20.4559 0.586075C20.7131 0.843303 20.8953 1.16579 20.9829 1.51884C21.0706 1.8719 21.0603 2.24217 20.9533 2.58984C19.8001 6.40529 19.7034 10.4622 20.6735 14.3283C21.6437 18.1944 23.6443 21.7248 26.4622 24.5433C29.2801 27.3618 32.8097 29.3629 36.6749 30.3332C40.5401 31.3035 44.5961 31.2068 48.4107 30.0534C48.7583 29.9463 49.1285 29.9361 49.4815 30.0237C49.8345 30.1114 50.1569 30.2936 50.4141 30.5508C50.6712 30.8081 50.8534 31.1305 50.9411 31.4836C51.0287 31.8367 51.0184 32.2069 50.9114 32.5546L50.8989 32.5371Z" fill="#FFFDFA"/>
</svg>
